HIERARCHY
ROOT Hips
{
  OFFSET 0 0 0
  CHANNELS 6 Xposition Yposition Zposition Zrotation Yrotation Xrotation
  JOINT LeftThigh
  {
    OFFSET 8.409438 0 -5.917753
    CHANNELS 3 Zrotation Yrotation Xrotation
    JOINT LeftLeg
    {
      OFFSET 0 0 -42.358652
      CHANNELS 3 Zrotation Yrotation Xrotation
      JOINT LeftFoot
      {
        OFFSET 0 0 -39.357303
        CHANNELS 3 Zrotation Yrotation Xrotation
      }
    }
  }
  JOINT RightThigh
  {
    OFFSET -8.409438 0 -5.917753
    CHANNELS 3 Zrotation Yrotation Xrotation
    JOINT RightLeg
    {
      OFFSET 0 0 -42.358652
      CHANNELS 3 Zrotation Yrotation Xrotation
      JOINT RightFoot
      {
        OFFSET 0 0 -39.357303
        CHANNELS 3 Zrotation Yrotation Xrotation
      }
    }
  }
  JOINT SpineLow
  {
    OFFSET 0 0 4.719101
    CHANNELS 3 Zrotation Yrotation Xrotation
    JOINT SpineMid
    {
      OFFSET 0 0 12.899191
      CHANNELS 3 Zrotation Yrotation Xrotation
      JOINT Chest
      {
        OFFSET 0 0 12.899191
        CHANNELS 3 Zrotation Yrotation Xrotation
        JOINT LeftShoulder
        {
          OFFSET 7.550562 1.41573 9.438202
          CHANNELS 3 Zrotation Yrotation Xrotation
          JOINT LeftArm
          {
            OFFSET 9.155056 0 4.247191
            CHANNELS 3 Zrotation Yrotation Xrotation
            JOINT LeftForearm
            {
              OFFSET 0 0 25.771955
              CHANNELS 3 Zrotation Yrotation Xrotation
              JOINT LeftHand
              {
                OFFSET 0 0 25.197169
                CHANNELS 3 Zrotation Yrotation Xrotation
              }
            }
          }
        }
        JOINT RightShoulder
        {
          OFFSET -7.550562 1.41573 9.438202
          CHANNELS 3 Zrotation Yrotation Xrotation
          JOINT RightArm
          {
            OFFSET -9.155056 0 4.247191
            CHANNELS 3 Zrotation Yrotation Xrotation
            JOINT RightForearm
            {
              OFFSET 0 0 -25.771955
              CHANNELS 3 Zrotation Yrotation Xrotation
              JOINT RightHand
              {
                OFFSET 0 0 -25.197169
                CHANNELS 3 Zrotation Yrotation Xrotation
              }
            }
          }
        }
        JOINT Neck
        {
          OFFSET 0 0 15.101124
          CHANNELS 3 Zrotation Yrotation Xrotation
          JOINT Head
          {
            OFFSET 0 0 11.325843
            CHANNELS 3 Zrotation Yrotation Xrotation
            End Site
            {
              OFFSET 0 0 14.157303
            }
          }
        }
      }
    }
  }
}
MOTION
Frames: 8
Frame Time: 0.0
0.0  101.685394  0.0  101.168816  -48.448553  171.691685  10.966215  -47.383826  5.643782  17.063648  4.069824  37.596373  -16.443475  -4.337805  6.648715  -11.366497  28.540204  -27.384472  21.283596  -2.190991  27.545473  9.298558  5.489989  -1.490406  1.947746  3.147936  5.604247  6.049121  8.092471  15.634787  6.049121  8.092471  15.634786  3.610757  18.707697  11.863522  167.910523  31.620187  172.575592  -39.296914  21.200597  87.290512  56.583549  -30.351123  31.675855  19.812835  -1.874417  18.112532  103.836258  55.122847  22.501587  -26.721995  -18.046553  -103.072518  61.456356  44.019642  0.683294  9.406021  15.29192  2.758388  6.941625  11.514459  1.816371  
0.0  101.685394  0.0  100.606051  -48.530304  173.188532  12.200086  -46.403557  2.511753  13.116907  6.230578  40.742548  -14.44481  -2.993707  6.342136  -11.420984  28.304915  -28.237799  20.59309  -1.734739  28.08166  9.609717  5.587087  -1.458109  2.028784  3.14503  5.547637  6.262797  8.071048  15.488471  6.262796  8.071048  15.488471  3.153046  18.650645  11.634206  167.63384  31.678207  172.289774  -39.038715  20.651854  87.502973  56.444427  -30.591488  31.675473  19.321983  -1.967193  17.970154  103.617884  55.775497  22.498028  -26.563869  -18.253404  -103.276616  60.900038  44.015311  0.164189  8.998931  15.130115  2.578763  6.644311  11.388334  1.695586  
0.0  101.685394  0.0  99.375351  -48.931866  174.661426  12.297661  -46.426993  -0.231455  9.745834  9.404413  45.000516  -11.530492  -1.678869  5.335861  -11.008081  28.017176  -28.185658  19.754895  -1.332176  28.58717  9.371106  5.613995  -1.390296  2.063433  3.076627  5.525316  6.337523  7.879633  15.422031  6.337523  7.879633  15.422031  2.97416  18.643692  11.734083  167.399947  31.809834  172.192896  -38.871341  20.550398  87.537336  56.375281  -30.630231  31.675395  19.048795  -2.034629  18.103636  103.534367  56.28538  22.431329  -26.652563  -18.491634  -103.488665  60.398143  44.025794  -0.250506  8.812258  14.946809  2.623553  6.505793  11.250576  1.736788  
0.0  101.685394  0.0  97.74168  -49.465631  176.142313  13.370447  -46.971636  -3.49851  7.025706  13.557806  48.201757  -8.064678  -0.962701  5.489984  -10.38653  27.829921  -27.598387  19.030668  -1.157673  29.032084  9.001795  5.85254  -1.341046  2.061536  2.952638  5.500875  6.298666  7.546259  15.338366  6.298666  7.546259  15.338367  2.948171  18.709972  12.019728  167.297423  31.905415  172.199304  -38.753737  20.693392  87.347407  56.340734  -30.56257  31.618848  18.985546  -2.02267  18.574337  103.419117  56.69191  22.310048  -26.728451  -18.758201  -103.792356  60.077522  43.987978  -0.465844  8.840918  14.83747  2.862392  6.522342  11.17217  1.916081  
0.0  101.685394  0.0  95.618304  -49.989302  178.147297  15.981349  -47.738817  -7.986735  5.46416  17.365397  51.375955  -5.12672  -0.776064  5.955862  -10.260452  27.599976  -27.229024  18.494193  -1.132879  29.439345  8.788635  6.246284  -1.269395  2.026509  2.812616  5.457839  6.16404  7.178884  15.198665  6.16404  7.178884  15.198664  3.036131  18.968374  12.325565  167.171834  32.17377  172.278148  -38.605683  20.815475  87.130849  56.303041  -30.427423  31.232981  18.806657  -1.999478  18.928313  103.387896  56.925148  22.179216  -26.704372  -19.012553  -104.1519  59.988451  43.858749  -0.486875  8.901071  14.751633  3.093652  6.562408  11.111485  2.088582  
0.0  101.685394  0.0  93.063157  -50.342877  -179.44875  20.40827  -48.666934  -14.06232  5.426623  20.123699  55.536261  -3.897633  -1.209965  6.325208  -10.455356  27.602723  -26.958405  17.950773  -1.219077  29.740159  8.465837  6.462406  -1.207601  1.994876  2.680245  5.402082  6.039996  6.832478  15.026197  6.039996  6.832478  15.026197  2.812685  18.943799  12.576186  167.159138  32.185041  172.385629  -38.497448  20.7344  86.842657  56.337349  -30.427767  31.196143  18.48164  -1.947438  19.472067  103.209831  57.299193  21.908446  -26.570054  -19.159234  -104.552057  60.071402  43.661516  -0.35588  8.910144  14.628289  3.349872  6.564253  11.022774  2.281642  
0.0  101.685394  0.0  90.139409  -50.443217  -176.805337  26.256168  -48.784051  -21.125399  5.734338  21.018927  60.528889  -4.141952  -1.737273  6.247349  -10.882099  27.804012  -26.60672  17.57433  -1.284241  29.976612  8.095556  6.579637  -1.169897  1.920432  2.556567  5.362095  5.803633  6.517589  14.894737  5.803633  6.517589  14.894739  2.755742  19.057874  12.852577  167.112624  32.153069  172.560533  -38.371147  20.217665  86.636293  56.412772  -30.570513  31.193183  18.230142  -1.875575  19.833176  103.065925  57.523419  21.812387  -26.367115  -19.179785  -105.006399  60.107634  43.377664  -0.221917  9.002377  14.573534  3.546285  6.628903  10.985176  2.426904  
0.0  101.685394  0.0  86.802868  -50.480933  -173.739568  32.192972  -47.776802  -28.047132  5.87859  19.987536  65.519374  -5.450217  -2.11106  5.857527  -12.000625  27.708287  -26.552105  17.749755  -1.283168  30.226676  7.76831  6.483381  -1.169921  1.797761  2.429061  5.323643  5.435727  6.202619  14.763843  5.435727  6.202619  14.763842  2.774211  19.097585  12.937143  166.99038  32.071503  172.811766  -38.282179  19.211695  86.346977  56.54738  -30.928899  31.133977  18.185188  -1.872105  20.122672  103.040854  57.822558  22.068375  -26.047297  -19.120729  -105.487862  60.195118  43.111905  -0.037016  9.182203  14.53171  3.610889  6.761961  10.955928  2.471507  
